<?xml version="1.0" encoding="UTF-8" standalone="no"?>
<!DOCTYPE svg PUBLIC "-//W3C//DTD SVG 1.1//EN" "http://www.w3.org/Graphics/SVG/1.1/DTD/svg11.dtd">
<svg version="1.1" xmlns="http://www.w3.org/2000/svg" xmlns:xlink="http://www.w3.org/1999/xlink" preserveAspectRatio="xMidYMid meet" viewBox="0 0 18 18" width="18" height="18"><defs><path d="M11.71 2.98L12.91 3.58L14 4.38L14.93 5.36L15.7 6.5L16.27 7.76L16.63 9.14L16.76 10.6L16.63 12.06L16.27 13.44L15.7 14.7L14.93 15.84L14 16.82L12.91 17.62L12.15 18L12.16 18L12.71 16.87L12.91 15.58L12.71 14.28L12.16 13.16L11.31 12.27L10.24 11.69L9 11.48L7.76 11.69L6.69 12.27L5.84 13.16L5.29 14.28L5.09 15.58L5.29 16.87L5.84 18L5.85 18L5.09 17.62L4 16.82L3.07 15.84L2.3 14.7L1.73 13.44L1.37 12.06L1.24 10.6L1.37 9.14L1.73 7.76L2.3 6.5L3.07 5.36L4 4.38L5.09 3.58L6.29 2.98L7.61 2.6L9 2.47L10.39 2.6L11.71 2.98Z" id="b5SsKyHpyD"></path><path d="" id="a3xCbeUMf0"></path><path d="M9 2.02L9 0.07" id="d2SfedarVD"></path><path d="" id="a4pVpsdA2c"></path><path d="M18 9.62L0 9.62" id="cihEWQkiu"></path><path d="M14 4.38L14.93 5.36L15.7 6.5L16.27 7.76L16.63 9.14L16.76 10.6L16.63 12.06L16.27 13.44L15.7 14.7L14.93 15.84L14 16.82L12.91 17.62L12.15 18L12.16 18L12.71 16.87L12.91 15.58L12.71 14.28L12.16 13.16L11.31 12.27L10.24 11.69L9 11.48L7.76 11.69L6.69 12.27L5.84 13.16L5.29 14.28L5.09 15.58L5.29 16.87L5.84 18L5.85 18L5.09 17.62L4 16.82L3.07 15.84L2.3 14.7L1.73 13.44L1.37 12.06L1.24 10.6L1.37 9.14L1.73 7.76L2.3 6.5L3.07 5.36L4 4.38L5.09 3.58L6.29 2.98L7.61 2.6L9 2.47L10.39 2.6L11.71 2.98L11.71 2.98L12.91 3.58L14 4.38Z" id="bGMBMq76m"></path><path d="M9 2.02L9 0.07" id="a3qzi6KBHL"></path><path d="M18 9L0 9" id="aoeb93AlY"></path></defs><g><g><g><g><use xlink:href="#b5SsKyHpyD" opacity="1" fill-opacity="0" stroke="#000000" stroke-width="1" stroke-opacity="1"></use></g></g><g><g><use xlink:href="#a3xCbeUMf0" opacity="1" fill-opacity="0" stroke="#000000" stroke-width="1" stroke-opacity="1"></use></g></g><g><g><use xlink:href="#d2SfedarVD" opacity="1" fill-opacity="0" stroke="#000000" stroke-width="1" stroke-opacity="1"></use></g></g><g><g><use xlink:href="#a4pVpsdA2c" opacity="1" fill-opacity="0" stroke="#000000" stroke-width="1" stroke-opacity="1"></use></g></g><g><g><use xlink:href="#cihEWQkiu" opacity="1" fill-opacity="0" stroke="#000000" stroke-width="1" stroke-opacity="1"></use></g></g><g><use xlink:href="#bGMBMq76m" opacity="1" fill="#000000" fill-opacity="0"></use><g><use xlink:href="#bGMBMq76m" opacity="1" fill-opacity="0" stroke="#000000" stroke-width="2" stroke-opacity="1"></use></g></g><g><use xlink:href="#a3qzi6KBHL" opacity="1" fill="#000000" fill-opacity="0"></use><g><use xlink:href="#a3qzi6KBHL" opacity="1" fill-opacity="0" stroke="#000000" stroke-width="2" stroke-opacity="1"></use></g></g><g><use xlink:href="#aoeb93AlY" opacity="1" fill="#000000" fill-opacity="0"></use><g><use xlink:href="#aoeb93AlY" opacity="1" fill-opacity="0" stroke="#000000" stroke-width="2" stroke-opacity="1"></use></g></g></g></g></svg>